<svg
    xmlns="http://www.w3.org/2000/svg"
    viewBox="0 0 64 64"
    width="40"
    height="40"
>
    <path
    fill="#2563eb"
    d="M43.922 51.766H26.945c-.815 0-1.477.663-1.477 1.477 0 .815.663 1.477 1.477 1.477h16.977c.815 0 1.477-.663 1.477-1.477a1.48 1.48 0 0 0-1.477-1.477zM60.649 5.565H10.218a3.314 3.314 0 0 0-3.31 3.31v6.203c0 .789.642 1.431 1.431 1.431h.092c.789 0 1.431-.642 1.431-1.431V8.874c0-.196.16-.356.356-.356h50.461a.33.33 0 0 1 .326.327v3.873a1.479 1.479 0 0 0 1.75 1.452c.686-.126 1.204-.785 1.204-1.534V8.874a3.313 3.313 0 0 0-3.31-3.309zm2.132 15.464a1.479 1.479 0 0 0-1.776 1.447v23.552c0 .18-.146.327-.326.327H27.396a1.48 1.48 0 0 0-1.477 1.477c0 .815.663 1.477 1.477 1.477h33.283a3.285 3.285 0 0 0 3.281-3.281V22.531c-.001-.735-.496-1.366-1.179-1.502zM3.23 51.42h15.349c.828 0 1.502-.674 1.502-1.502s-.674-1.502-1.502-1.502H3.23a.185.185 0 0 1-.185-.184V21.921c0-.388.316-.704.705-.704h16.623c.389 0 .704.316.704.704 0 .828.674 1.502 1.502 1.502s1.502-.674 1.502-1.502a3.713 3.713 0 0 0-3.709-3.708H3.75a3.713 3.713 0 0 0-3.709 3.708v26.311a3.192 3.192 0 0 0 .189 1.499z"
    />
    <path
    fill="#2563eb"
    d="M22.58 30.225c-.828 0-1.502.674-1.502 1.502v22.999a.705.705 0 0 1-.704.705H3.75a.705.705 0 0 1-.705-.705c0-.828-.674-1.502-1.502-1.502s-1.502.674-1.502 1.502a3.713 3.713 0 0 0 3.709 3.709h16.623a3.713 3.713 0 0 0 3.709-3.709V31.727c0-.828-.674-1.502-1.502-1.502zM9.867 22.564c-.732 0-1.327.596-1.327 1.327s.596 1.327 1.327 1.327h4.855c.732 0 1.328-.595 1.328-1.327s-.596-1.327-1.328-1.327H9.867z"
    />
    <circle cx="22.356" cy="26.253" r="1.446" fill="#343434" />
    <circle cx="62.448" cy="16.889" r="1.512" fill="#343434" />
    <circle cx="35.434" cy="43.335" r="1.511" fill="#343434" />
    <circle cx="12.294" cy="53.267" r="1.511" fill="#343434" />
</svg>